<svg width="26" height="26" viewBox="0 0 26 26" fill="none" xmlns="http://www.w3.org/2000/svg">
<path d="M25.9948 14.4181C25.9637 13.3888 25.2592 12.5668 23.8968 11.9744C22.84 11.5226 21.4983 11.2486 20.0478 11.2042V3.30276C20.0426 3.16947 20.0167 3.04358 19.9701 2.9325C19.8251 2.03646 19.1257 1.31074 17.8876 0.777556C16.7221 0.273996 15.199 0 13.5983 0C12.0028 0 10.4953 0.273996 9.35047 0.777556C8.41283 1.19225 7.2887 1.9624 7.2887 3.28795C7.2887 3.36941 7.29388 3.45087 7.30424 3.53233L7.36123 6.90914C3.99402 5.99089 0.745965 9.15295 0.108787 13.959C0.0362622 14.507 0 15.055 0 15.6104C0 20.4979 2.78183 24.4745 6.20084 24.4745C7.62542 24.4745 9.00339 23.7784 10.1068 22.4899C11.0755 22.8157 12.2152 22.9935 13.4222 23.0083C13.6864 25.0595 16.7946 26 19.6904 26C21.2859 26 22.7934 25.7186 23.9382 25.2076C24.8759 24.7929 26 24.0154 26 22.6898V14.5588C26 14.5144 26 14.4625 25.9948 14.4181ZM18.9651 7.39789C18.9651 7.49416 18.7165 8.00513 17.5924 8.49388C16.5407 8.9456 15.0851 9.21219 13.6035 9.21219C12.324 9.21219 11.0703 9.01965 10.0757 8.65679C10.0602 8.64939 10.0498 8.64939 10.0343 8.64198C9.54214 8.08659 8.99821 7.64227 8.41283 7.33124L8.37657 5.24295C8.73401 5.50214 9.10699 5.70948 9.49552 5.85759C10.6196 6.32412 12.0753 6.5759 13.6035 6.5759C15.199 6.5759 16.7272 6.30191 17.8928 5.79835C18.2813 5.63543 18.6595 5.42068 19.0169 5.15409V7.09427C18.96 7.19795 18.9651 7.29422 18.9651 7.39789ZM9.66129 2.20678C10.7077 1.74765 12.1064 1.48846 13.5983 1.48846C15.0799 1.48846 16.5356 1.74765 17.5872 2.20678C18.7113 2.69553 18.96 3.19909 18.96 3.29536C18.96 3.39903 18.7061 3.91 17.582 4.39134C16.5304 4.84306 15.0799 5.10225 13.5983 5.10225C12.1686 5.10225 10.8113 4.86528 9.78043 4.43577C8.66667 3.97664 8.35585 3.47308 8.32995 3.31017C8.32995 3.29536 8.32477 3.29536 8.32477 3.29536C8.32995 3.15466 8.56824 2.68072 9.66129 2.20678ZM9.67683 21.0755C7.56844 23.8154 4.29966 23.6007 2.38294 20.5867C0.466228 17.5728 0.616457 12.9 2.72485 10.1601C3.67284 8.92338 4.91612 8.2421 6.20084 8.2421C6.71887 8.2421 7.23172 8.35318 7.72903 8.56793C9.5266 9.3677 10.8787 11.5004 11.262 14.1293C11.3293 14.6181 11.3656 15.1216 11.3656 15.6178C11.3708 17.6987 10.7543 19.6759 9.67683 21.0755ZM10.9926 21.2384C11.4122 20.5053 11.749 19.6833 11.9872 18.802C12.4276 18.8539 12.8834 18.8909 13.36 18.8983V19.0316L13.3911 21.542C12.5882 21.5272 11.7852 21.4235 10.9926 21.2384ZM12.3758 14.7365C12.6762 14.7662 12.9922 14.781 13.3134 14.7884L13.3445 17.4099C12.9819 17.4024 12.6244 17.3802 12.2825 17.3432C12.3602 16.773 12.4017 16.188 12.4017 15.6104C12.4017 15.3216 12.3913 15.0328 12.3758 14.7365ZM13.6501 13.3147C13.6346 13.3147 13.6139 13.3147 13.5983 13.3147C13.101 13.3147 12.6192 13.2851 12.1737 13.2407C11.9769 12.2484 11.6661 11.3153 11.2465 10.4859C12.0235 10.6266 12.8057 10.7007 13.5931 10.7007C15.1939 10.7007 16.7221 10.4267 17.8876 9.9231C18.2761 9.76018 18.6491 9.54543 19.0066 9.28624V11.2264C16.7842 11.3153 14.4997 11.9818 13.6501 13.3147ZM14.3339 14.4922C14.3339 14.4848 14.3339 14.4774 14.3391 14.4625C14.3857 14.2626 14.7535 13.7739 15.8259 13.3443C16.8308 12.9371 18.1415 12.7149 19.5194 12.7149H19.6075C21.0891 12.7149 22.5396 12.9593 23.5963 13.4184C24.6997 13.8923 24.9588 14.3811 24.9639 14.4922V14.4996C24.9588 14.6107 24.6997 15.1216 23.5497 15.6104C22.4877 16.0621 21.0891 16.3065 19.6127 16.3065C18.1829 16.3065 16.8257 16.0695 15.7948 15.6474C14.681 15.1883 14.3754 14.6773 14.3443 14.5218C14.3339 14.4922 14.3339 14.4922 14.3339 14.4922ZM23.6378 23.8006C22.5914 24.2672 21.1875 24.5263 19.6956 24.5263C18.1984 24.5263 16.7998 24.2746 15.7637 23.8228C14.6707 23.3415 14.4427 22.8453 14.4427 22.7343C14.4427 22.7269 14.4427 22.7269 14.4427 22.7195L14.4168 20.5719C14.8312 20.8607 15.2612 21.0829 15.7067 21.2458C16.7946 21.6531 18.1777 21.8827 19.5971 21.8827C21.1978 21.8827 22.7157 21.6087 23.8761 21.1051C24.2542 20.9422 24.6169 20.7274 24.9639 20.4756V22.6972H24.9691C24.9691 22.8009 24.7308 23.3119 23.6378 23.8006ZM24.9743 18.3503H24.9691C24.9691 18.4244 24.938 18.5132 24.938 18.5947C24.938 18.6984 24.6946 19.2019 23.5756 19.6907C22.5136 20.1498 21.0994 20.4016 19.6023 20.4016C16.7324 20.4016 14.8002 19.4759 14.3961 18.7576L14.3909 18.1356L14.3702 16.4324C14.7328 16.6915 15.111 16.8989 15.4995 17.0544C16.6236 17.5209 18.0793 17.7727 19.6075 17.7727C21.1823 17.7727 22.6846 17.5061 23.8398 17.0174C24.2335 16.8619 24.6117 16.6471 24.9743 16.3805V18.3503Z" fill="white"/>
</svg>
