<svg width="30" height="30" viewBox="0 0 30 30" fill="none" xmlns="http://www.w3.org/2000/svg">
<g clip-path="url(#clip0)">
<path d="M29.0218 15.9784H10.1086C9.56863 15.9784 9.13037 15.5401 9.13037 15.0001C9.13037 14.4601 9.56863 14.0219 10.1086 14.0219H29.0218C29.5618 14.0219 30.0001 14.4601 30.0001 15.0001C30.0001 15.5401 29.5618 15.9784 29.0218 15.9784Z" fill="white"/>
<path d="M15.3262 21.1956C15.0757 21.1956 14.8254 21.1005 14.6348 20.9087L9.41746 15.6914C9.03533 15.309 9.03533 14.6895 9.41746 14.3074L14.6348 9.09007C15.0169 8.70793 15.6364 8.70793 16.0188 9.09007C16.4009 9.4722 16.4009 10.0917 16.0188 10.4739L11.4927 15L16.0188 19.5261C16.4009 19.9083 16.4009 20.5278 16.0188 20.9099C15.827 21.1005 15.5765 21.1956 15.3262 21.1956Z" fill="white"/>
<path d="M14.3479 29.3479C6.43703 29.3479 0 22.9109 0 15C0 7.08913 6.43703 0.6521 14.3479 0.6521C20.2839 0.6521 25.5248 4.22337 27.7018 9.75141C27.9 10.2534 27.6521 10.8209 27.1501 11.0203C26.6478 11.2162 26.0803 10.9721 25.8809 10.4674C24.0013 5.69339 19.474 2.60862 14.3479 2.60862C7.5156 2.60862 1.95652 8.16794 1.95652 15C1.95652 21.8321 7.5156 27.3914 14.3479 27.3914C19.474 27.3914 24.0013 24.3066 25.8809 19.534C26.0792 19.0291 26.6466 18.7853 27.1501 18.9809C27.6521 19.1791 27.9 19.7478 27.7018 20.25C25.5248 25.7766 20.2839 29.3479 14.3479 29.3479Z" fill="white"/>
</g>
<defs>
<clipPath id="clip0">
<rect width="30" height="30" fill="white"/>
</clipPath>
</defs>
</svg>
