<svg width="26" height="26" viewBox="0 0 26 26" fill="none" xmlns="http://www.w3.org/2000/svg">
<path d="M15.055 17.0928C14.4193 16.6493 13.7399 16.2879 13.0293 16.0118C13.9745 15.1526 14.6016 13.9492 14.7107 12.6019C16.144 11.2052 18.023 10.4395 20.0371 10.4395C21.6096 10.4395 23.1193 10.913 24.4035 11.8086C24.8637 12.1296 25.4965 12.0169 25.8175 11.5567C26.1382 11.0967 26.0256 10.4637 25.5656 10.143C24.9298 9.69942 24.2502 9.3382 23.5397 9.06187C24.5827 8.11389 25.2385 6.74696 25.2385 5.22987C25.2385 2.37402 22.9152 0.0507812 20.0594 0.0507812C17.2037 0.0507812 14.8805 2.37402 14.8805 5.22987C14.8805 6.74081 15.5309 8.10278 16.5668 9.05037C16.4249 9.10492 16.2839 9.16264 16.1442 9.22414C15.5087 9.50383 14.9112 9.84779 14.3556 10.2517C13.5893 8.34796 11.7237 7.00067 9.54903 7.00067C6.69338 7.00067 4.36994 9.32391 4.36994 12.1796C4.36994 13.6863 5.01681 15.0445 6.04711 15.9917C3.29243 17.0238 1.05884 19.2405 0.149542 22.0676C-0.151971 23.0051 0.00771186 23.9993 0.587729 24.7953C1.16775 25.5912 2.06515 26.0476 3.04983 26.0476H11.8848C12.4455 26.0476 12.9002 25.593 12.9002 25.032C12.9002 24.4712 12.4455 24.0166 11.8848 24.0166H3.04983C2.72153 24.0166 2.4224 23.8644 2.22899 23.599C2.03559 23.3336 1.98243 23.0021 2.0828 22.6895C3.08652 19.5688 6.14768 17.3894 9.52681 17.3894C11.099 17.3894 12.609 17.8629 13.8932 18.7585C14.3532 19.0795 14.9862 18.9666 15.3071 18.5066C15.6279 18.0466 15.5152 17.4136 15.055 17.0928ZM20.0594 2.08183C21.7952 2.08183 23.2074 3.49399 23.2074 5.22987C23.2074 6.96556 21.7952 8.37791 20.0594 8.37791C18.3237 8.37791 16.9113 6.96556 16.9113 5.22987C16.9113 3.49399 18.3237 2.08183 20.0594 2.08183ZM9.54903 9.03152C11.2849 9.03152 12.6971 10.4439 12.6971 12.1796C12.6971 13.9155 11.2849 15.3276 9.54903 15.3276C7.81315 15.3276 6.40099 13.9155 6.40099 12.1796C6.40099 10.4439 7.81315 9.03152 9.54903 9.03152ZM26.0002 21.224C26.0002 21.7848 25.5455 22.2394 24.9845 22.2394H22.192V25.032C22.192 25.593 21.7373 26.0476 21.1765 26.0476C20.6156 26.0476 20.1609 25.593 20.1609 25.032V22.2394H17.3684C16.8076 22.2394 16.3529 21.7848 16.3529 21.224C16.3529 20.663 16.8076 20.2084 17.3684 20.2084H20.1609V17.4158C20.1609 16.855 20.6156 16.4004 21.1765 16.4004C21.7373 16.4004 22.192 16.855 22.192 17.4158V20.2084H24.9845C25.5455 20.2084 26.0002 20.663 26.0002 21.224Z" fill="white"/>
</svg>
