<?xml version="1.0" standalone="no"?>
<!DOCTYPE svg PUBLIC "-//W3C//DTD SVG 20010904//EN"
 "http://www.w3.org/TR/2001/REC-SVG-20010904/DTD/svg10.dtd">
<svg version="1.0" xmlns="http://www.w3.org/2000/svg"
 width="5189.000000pt" height="890.000000pt" viewBox="0 0 5189.000000 890.000000"
 preserveAspectRatio="xMidYMid meet">

<g transform="translate(0.000000,890.000000) scale(0.100000,-0.100000)"
fill="#000000" stroke="none">
<path d="M4185 8893 c-109 -7 -338 -35 -475 -59 -688 -117 -1394 -425 -1950
-853 -403 -309 -771 -705 -1043 -1121 -571 -876 -814 -1931 -681 -2970 229
-1808 1581 -3314 3369 -3755 383 -95 667 -128 1080 -129 375 0 607 24 961 100
779 166 1531 560 2107 1103 553 521 961 1136 1171 1763 164 488 238 891 252
1373 24 787 -180 1588 -585 2294 l-70 123 29 107 c80 289 80 514 0 753 -58
171 -150 318 -285 453 -337 337 -793 438 -1268 281 l-97 -32 -203 101 c-534
268 -1081 419 -1676 465 -123 9 -514 11 -636 3z m550 -403 c405 -27 758 -99
1135 -233 141 -49 390 -156 390 -166 0 -4 -15 -14 -33 -23 -55 -26 -182 -133
-228 -192 -41 -52 -46 -55 -79 -51 -212 29 -579 41 -790 26 -479 -35 -890
-141 -1182 -306 l-93 -52 -130 63 c-247 119 -437 171 -657 181 -145 6 -212 -2
-328 -39 -288 -92 -524 -337 -602 -625 -16 -60 -21 -106 -21 -203 1 -151 14
-206 107 -446 36 -94 66 -175 66 -182 0 -6 -31 -71 -69 -144 -377 -721 -450
-1466 -214 -2194 l26 -82 -163 -268 c-191 -314 -205 -335 -281 -432 -157 -196
-218 -381 -190 -578 16 -111 43 -185 151 -407 97 -201 168 -306 271 -402 169
-158 343 -233 657 -285 l172 -29 68 -50 c37 -28 105 -71 152 -95 413 -212 840
-156 1770 234 135 57 264 105 286 108 88 10 156 -36 247 -167 30 -42 103 -128
163 -191 118 -124 153 -168 290 -360 48 -69 116 -157 150 -196 l62 -71 -131
-41 c-172 -53 -300 -85 -470 -116 -291 -54 -368 -60 -747 -60 -310 -1 -375 2
-515 21 -910 125 -1689 499 -2340 1125 -313 300 -606 699 -802 1093 -206 410
-341 864 -400 1335 -28 226 -25 737 5 960 65 476 178 851 387 1275 208 424
430 732 774 1076 280 278 550 485 886 674 673 380 1484 566 2250 515z m888
-1028 c125 -10 229 -21 230 -23 2 -2 11 -23 22 -47 28 -66 68 -93 205 -141
205 -73 394 -178 645 -359 197 -143 287 -241 500 -540 192 -270 276 -342 391
-334 12 1 64 40 114 86 l93 85 62 -73 c137 -162 228 -294 319 -468 56 -105 57
-108 68 -230 16 -173 16 -793 0 -948 -52 -511 -158 -890 -361 -1286 -126 -246
-257 -432 -419 -598 -198 -203 -400 -310 -571 -305 l-65 2 -71 -114 c-248
-398 -510 -656 -749 -739 -89 -30 -174 -43 -245 -35 -74 8 -60 -4 -231 200
-142 169 -297 320 -366 357 -78 42 -167 62 -249 55 -81 -7 -161 -33 -445 -145
-350 -137 -649 -242 -788 -278 -113 -29 -149 -34 -245 -34 -201 1 -387 25
-387 51 0 4 15 11 33 14 17 4 82 27 142 50 435 168 741 426 913 771 98 198
152 406 177 684 l7 75 85 50 c101 59 153 112 153 156 0 40 -25 86 -51 94 -76
24 -545 -84 -640 -148 -38 -26 -48 -62 -29 -108 17 -39 63 -66 149 -85 l71
-16 -6 -57 c-15 -148 -36 -260 -63 -341 -152 -454 -535 -784 -1034 -892 -86
-18 -134 -22 -307 -22 -186 -1 -212 1 -288 23 -106 30 -132 50 -132 101 0 21
3 46 6 54 4 9 56 42 116 72 245 126 350 303 335 567 -9 167 -52 265 -166 377
-60 60 -96 85 -171 122 -52 26 -126 57 -165 69 -38 12 -74 25 -78 29 -5 4 135
223 310 486 217 326 324 496 336 533 27 86 23 184 -12 258 -74 156 -217 244
-370 229 -37 -4 -81 -9 -100 -13 l-34 -6 6 139 c16 359 123 737 303 1071 59
109 80 138 144 198 41 38 213 205 383 370 504 488 693 661 805 732 189 122
432 202 719 238 148 19 692 12 996 -13z"/>
<path d="M4401 5759 c-207 -44 -377 -138 -545 -299 -225 -215 -304 -384 -294
-623 11 -230 112 -422 290 -547 103 -72 178 -95 313 -95 127 0 192 18 333 90
153 78 247 80 385 8 74 -39 158 -117 378 -349 113 -120 171 -158 240 -158 38
0 58 7 91 31 53 38 142 165 207 298 95 194 127 333 119 518 -12 250 -133 477
-377 710 -223 211 -443 342 -680 404 -137 36 -330 41 -460 12z"/>
<path d="M17710 7129 c-402 -18 -746 -103 -1057 -259 -188 -95 -309 -180 -450
-314 -179 -170 -292 -328 -404 -561 -141 -293 -217 -616 -239 -1018 -5 -95
-10 -865 -10 -1724 l0 -1553 645 0 645 0 0 755 0 755 1045 0 1045 0 0 -755 0
-755 660 0 661 0 -4 1708 c-3 1851 -1 1754 -57 2032 -233 1146 -1120 1751
-2480 1689z m380 -1230 c397 -49 651 -244 766 -588 58 -173 66 -250 71 -624
l5 -337 -1044 2 -1043 3 1 310 c1 319 7 402 45 554 44 175 106 295 214 409
139 148 305 230 540 266 110 17 330 20 445 5z"/>
<path d="M23200 7130 c-727 -35 -1312 -307 -1666 -775 -215 -284 -346 -619
-411 -1045 -16 -105 -17 -264 -20 -1862 l-4 -1748 661 0 660 0 0 1648 c0 1135
3 1675 11 1737 55 448 282 716 679 802 67 14 127 18 285 17 183 -1 208 -3 300
-27 361 -96 565 -332 630 -732 13 -77 15 -335 15 -1767 l0 -1678 666 0 665 0
-4 1718 c-3 1535 -5 1730 -20 1841 -63 464 -201 820 -431 1116 -85 108 -261
275 -376 357 -118 85 -380 215 -525 263 -213 70 -469 119 -684 130 -220 11
-280 12 -431 5z"/>
<path d="M34215 7129 c-1253 -58 -2021 -782 -2135 -2014 -6 -69 -10 -724 -10
-1762 l0 -1653 640 0 640 0 0 755 0 755 1045 0 1045 0 0 -755 0 -755 660 0
661 0 -4 1717 -3 1718 -22 140 c-28 172 -72 353 -118 488 -43 125 -146 341
-210 439 -423 657 -1171 974 -2189 927z m500 -1247 c352 -77 571 -281 670
-626 43 -150 55 -287 55 -612 l0 -294 -1042 2 -1043 3 1 305 c2 410 29 583
125 774 50 101 94 159 174 235 124 115 298 194 500 226 130 21 439 13 560 -13z"/>
<path d="M10780 4365 l0 -2665 660 0 660 0 0 785 0 785 463 0 c607 0 776 14
1072 90 768 195 1213 703 1316 1500 16 123 16 468 0 590 -53 414 -198 745
-437 998 -316 336 -769 525 -1373 572 -83 6 -569 10 -1248 10 l-1113 0 0
-2665z m2369 1417 c242 -54 397 -193 457 -412 25 -91 26 -338 1 -430 -72 -267
-255 -406 -577 -440 -52 -5 -283 -10 -512 -10 l-418 0 0 661 0 661 478 -5
c436 -4 485 -6 571 -25z"/>
<path d="M26640 4365 l0 -2665 1059 0 c654 0 1109 4 1188 11 1470 120 2355
961 2474 2347 17 202 7 615 -20 794 -73 493 -248 921 -510 1248 -70 87 -229
248 -319 322 -180 148 -478 316 -716 403 -280 103 -624 171 -981 195 -83 5
-600 10 -1162 10 l-1013 0 0 -2665z m2043 1435 c269 -19 507 -75 678 -160 253
-127 441 -325 549 -579 153 -358 167 -919 34 -1304 -141 -405 -428 -662 -864
-772 -204 -52 -267 -57 -707 -62 l-413 -5 0 1446 0 1446 288 0 c158 0 353 -5
435 -10z"/>
<path d="M44470 6953 c-105 -8 -334 -45 -445 -72 -889 -219 -1418 -854 -1520
-1823 -13 -126 -15 -382 -15 -1793 l0 -1645 280 0 280 0 0 940 0 940 1693 -2
1692 -3 3 -937 2 -938 285 0 286 0 -4 1708 c-3 1828 -1 1747 -52 1997 -192
945 -844 1514 -1857 1620 -133 14 -491 18 -628 8z m577 -538 c499 -65 871
-278 1107 -633 140 -211 224 -451 266 -767 6 -44 14 -284 17 -532 l6 -453
-1697 0 -1696 0 0 423 c0 445 9 580 50 769 147 676 612 1097 1316 1191 150 20
481 21 631 2z"/>
<path d="M37880 4240 l0 -2620 285 0 285 0 2 948 3 947 985 6 c675 4 1009 9
1060 17 222 35 372 73 520 132 554 219 881 678 939 1320 41 443 -48 866 -247
1175 -236 367 -624 587 -1183 672 -102 15 -244 17 -1381 20 l-1268 4 0 -2621z
m2600 2066 c290 -58 480 -152 631 -314 141 -151 225 -339 258 -577 14 -96 14
-347 1 -440 -37 -259 -131 -460 -289 -615 -149 -148 -319 -229 -601 -287 -64
-14 -216 -17 -1052 -20 l-978 -4 0 1141 0 1141 973 -4 c864 -3 981 -6 1057
-21z"/>
<path d="M47010 6853 c1 -5 484 -667 1075 -1473 l1075 -1465 0 -1147 0 -1148
290 0 290 0 0 1154 0 1155 1070 1461 c589 804 1070 1463 1070 1466 0 2 -154 4
-342 3 l-343 0 -865 -1222 c-476 -672 -870 -1222 -874 -1222 -5 0 -401 549
-879 1220 l-869 1220 -349 3 c-192 1 -349 -1 -349 -5z"/>
</g>
</svg>
