<svg width="26" height="26" viewBox="0 0 26 26" fill="none" xmlns="http://www.w3.org/2000/svg">
<path d="M22.1924 3.8076C19.737 1.35225 16.4726 0 13.0002 0H12.9998C9.52744 0 6.26295 1.35225 3.8076 3.8076C1.35225 6.26295 0 9.52763 0 13C0 16.4724 1.35225 19.737 3.8076 22.1924C6.26295 24.6478 9.52763 26 13 26C16.4724 26 19.737 24.6478 22.1924 22.1924C24.6478 19.737 26 16.4724 26 13C26 9.52763 24.6478 6.26295 22.1924 3.8076ZM23.0416 18.5512H19.2368C19.7466 17.0575 20.0536 15.4403 20.1252 13.7617H24.4506C24.3369 15.4899 23.839 17.1145 23.0416 18.5512ZM13 24.3639C11.3786 23.399 10.0339 21.9036 9.06664 20.0747H16.9334C15.9661 21.9036 14.6214 23.399 13 24.3639ZM8.37811 18.5512C7.81793 17.0815 7.47833 15.4587 7.39978 13.7617H18.6002C18.5217 15.4587 18.1819 17.0815 17.6217 18.5512H8.37811ZM1.54942 13.7617H5.87476C5.94637 15.4403 6.25343 17.0575 6.76323 18.5512H2.9584C2.16098 17.1145 1.66309 15.4899 1.54942 13.7617ZM2.9584 7.44878H6.76323C6.25343 8.94246 5.94637 10.5597 5.87476 12.2383H1.54942C1.66309 10.5101 2.16098 8.88553 2.9584 7.44878ZM13 1.63611C14.6214 2.60095 15.9661 4.09642 16.9334 5.92534H9.06664C10.0339 4.09642 11.3786 2.60095 13 1.63611ZM17.6219 7.44878C18.1821 8.91846 18.5217 10.5413 18.6002 12.2383H7.39978C7.47833 10.5413 7.81813 8.91846 8.37831 7.44878H17.6219ZM24.4506 12.2383H20.1252C20.0536 10.5597 19.7466 8.94246 19.2368 7.44878H23.0416C23.839 8.88553 24.3369 10.5101 24.4506 12.2383ZM18.6268 5.92534C17.9028 4.36143 16.9395 2.97943 15.7831 1.86542C18.2932 2.49304 20.4789 3.94884 22.0307 5.92534H18.6268ZM10.2169 1.86542C9.06049 2.97943 8.09723 4.36143 7.3732 5.92534H3.96927C5.52107 3.94884 7.70685 2.49304 10.2169 1.86542ZM7.3732 20.0747C8.09723 21.6386 9.06049 23.0206 10.2169 24.1346C7.70685 23.507 5.52107 22.0512 3.96927 20.0747H7.3732ZM15.7831 24.1346C16.9395 23.0206 17.9028 21.6384 18.6268 20.0747H22.0307C20.4789 22.0512 18.2932 23.507 15.7831 24.1346Z" fill="white"/>
</svg>
