<svg width="24" height="26" viewBox="0 0 24 26" fill="none" xmlns="http://www.w3.org/2000/svg">
<path d="M8.19344 24.3226H4.9046C3.32348 24.3226 2.13618 22.8821 2.43355 21.3323L3.80579 14.1809C4.57137 10.1911 8.65804 7.74077 12.5435 8.96172C12.9854 9.10058 13.4562 8.85494 13.595 8.41304C13.7334 7.97272 13.4899 7.50388 13.051 7.36319C13.6452 6.24231 13.2682 4.83175 12.1497 4.16529L13.7516 1.24176C14.0572 0.683915 13.653 0 13.016 0H7.56441C6.9283 0 6.52284 0.683129 6.82886 1.24171L8.4308 4.16524C7.26368 4.86069 6.91342 6.35517 7.59754 7.48391C4.85486 8.4846 2.73381 10.866 2.1584 13.8649L0.786224 21.0162C0.28955 23.6043 2.27441 26 4.9046 26H8.19344C8.65662 26 9.03216 25.6245 9.03216 25.1613C9.03216 24.6981 8.65667 24.3226 8.19344 24.3226ZM11.6001 1.67742L10.4225 3.82661H10.158L8.98036 1.67742H11.6001ZM9.66119 6.97177C9.25651 6.97177 8.92732 6.64258 8.92732 6.2379C8.92732 5.83438 9.2552 5.50403 9.66166 5.50403H10.9135C11.337 5.50403 11.6531 5.84418 11.6531 6.2379C11.6531 6.64258 11.3239 6.97177 10.9193 6.97177H9.66119ZM17.9313 15.3186C18.2589 15.6461 18.2589 16.1771 17.9313 16.5047L13.795 20.6411C13.6312 20.8048 13.4166 20.8868 13.2019 20.8868C12.4615 20.8868 12.0789 19.9849 12.6088 19.455L16.7452 15.3186C17.0728 14.991 17.6038 14.991 17.9313 15.3186ZM16.9936 18.9336C16.379 18.9336 15.8791 19.4335 15.8791 20.048C15.8791 20.6626 16.379 21.1625 16.9936 21.1625C17.6081 21.1625 18.108 20.6626 18.108 20.048C18.108 19.4335 17.6081 18.9336 16.9936 18.9336ZM13.5466 17.0261C14.1611 17.0261 14.6611 16.5262 14.6611 15.9116C14.6611 15.2971 14.1611 14.7972 13.5466 14.7972C12.9321 14.7972 12.4321 15.2971 12.4321 15.9116C12.4321 16.5262 12.932 17.0261 13.5466 17.0261ZM15.2701 9.95968C10.8478 9.95968 7.2499 13.5575 7.2499 17.9798C7.2499 22.4021 10.8478 26 15.2701 26C19.6924 26 23.2902 22.4021 23.2902 17.9798C23.2902 13.5575 19.6924 9.95968 15.2701 9.95968ZM15.2701 24.3226C11.7726 24.3226 8.92732 21.4773 8.92732 17.9798C8.92732 14.4824 11.7726 11.6371 15.2701 11.6371C18.7675 11.6371 21.6128 14.4824 21.6128 17.9798C21.6128 21.4773 18.7675 24.3226 15.2701 24.3226Z" fill="white"/>
</svg>
